<?xml version="1.0" encoding="UTF-8"?>
  <svg width="420px" height="572px" viewBox="40 100 380 500" version="1.1" xmlns="http://www.w3.org/2000/svg" xmlns:xlink="http://www.w3.org/1999/xlink">
    <!-- Generator: Sketch 49.3 (51167) - http://www.bohemiancoding.com/sketch -->
    <title>invite stars gold</title>
    <desc>Created with Sketch.</desc>
    <defs></defs>
    <g id="invite-stars-gold" stroke="none" stroke-width="1" fill="none" fill-rule="evenodd">
        <text id="Together-with-their" font-family="STHeitiSC-Light, Heiti SC" font-size="13" font-weight="300" line-spacing="17" letter-spacing="0.0220132656" fill="#0B2348">
            <tspan x="45" y="316">Together with their families,</tspan>
            <tspan x="45" y="333.5">Virginia Leigh Romney &amp;</tspan>
            <tspan x="45" y="351">Matthew Howard Montgomery</tspan>
            <tspan x="45" y="368.5">announce their forthcoming marriage:</tspan>
            <tspan x="45" y="386">April 28, 2018</tspan>
            <tspan x="45" y="403.5">in the Mesa Arizona Temple.</tspan>
        </text>
        <text id="Please-join-Matt-and" font-family="STHeitiSC-Light, Heiti SC" font-size="13" font-weight="300" line-spacing="17" letter-spacing="0.0220132656" fill="#0B2348">
            <tspan x="45" y="448">Please join Matt and Ginny for an</tspan>
            <tspan x="45" y="465.5">open house on May 11 at 6 p.m.</tspan>
            <tspan x="45" y="483">4th West Apartments</tspan>
            <tspan x="45" y="500.5">255 N. 400 West, Salt Lake City, UT 84103</tspan>
        </text>
        <text id="For-additional-detai" font-family="STHeitiSC-Light, Heiti SC" font-size="13" font-weight="300" line-spacing="17" letter-spacing="0.0220132656" fill="#0B2348">
            <tspan x="45" y="548">For additional details and parking </tspan>
            <tspan x="45" y="565">instructions, please visit </tspan>
            <tspan x="45" y="582">mattandginny.wedding</tspan>
        </text>
        <g id="Group" transform="translate(39.000000, 125.000000)" fill="#0B2348" opacity="0.650079257">
            <path d="M0.51353178,66.7747748 L0.51353178,54.012012 L7.18944492,54.012012 L7.18944492,29.0990991 C7.18944492,27.6696697 6.36779407,26.954955 4.92990509,26.954955 L0,26.954955 L0,14.1921922 L16.741136,14.1921922 C21.5683347,14.1921922 24.1359936,16.5405405 24.1359936,20.1141141 L24.1359936,21.8498498 C24.1359936,22.3603604 24.0332873,23.0750751 24.0332873,23.0750751 L24.2387,23.0750751 C26.9090653,18.990991 32.0443831,12.966967 40.979836,12.966967 C46.731392,12.966967 52.1748288,15.5195195 54.7424877,22.8708709 L54.9479004,22.8708709 C57.8236784,17.2552553 64.2941788,12.966967 72.4079809,12.966967 C81.4461403,12.966967 89.0464106,18.1741742 89.0464106,32.6726727 L89.0464106,54.012012 L95.7223237,54.012012 L95.7223237,66.7747748 L71.278211,66.7747748 L71.278211,35.6336336 C71.278211,31.7537538 70.5592665,28.996997 67.1699568,28.996997 C59.4669801,28.996997 57.0020275,36.2462462 57.0020275,45.027027 L57.0020275,54.012012 L63.6779407,54.012012 L63.6779407,66.7747748 L39.233828,66.7747748 L39.233828,35.6336336 C39.233828,31.7537538 38.5148835,28.996997 35.1255737,28.996997 C27.0117716,28.996997 24.9576445,37.5735736 24.9576445,46.048048 L24.9576445,54.012012 L31.6335576,54.012012 L31.6335576,66.7747748 L0.51353178,66.7747748 Z M100.422372,51.7657658 C100.422372,36.3483483 120.450111,34.1021021 128.66662,34.1021021 L131.850517,34.1021021 L131.850517,32.5705706 C131.850517,28.2822823 128.358501,26.7507508 124.352953,26.7507508 C117.163508,26.7507508 109.76865,31.7537538 109.76865,31.7537538 L103.606269,19.8078078 C103.606269,19.8078078 112.644428,12.966967 125.996254,12.966967 C141.402208,12.966967 149.618716,20.6246246 149.618716,34.4084084 L149.618716,51.7657658 C149.618716,53.1951952 150.440367,54.012012 151.878256,54.012012 L155.781098,54.012012 L155.781098,66.7747748 L140.477851,66.7747748 C135.342533,66.7747748 133.391112,63.8138138 133.391112,61.2612613 L133.391112,60.954955 C133.391112,60.036036 133.596525,59.3213213 133.596525,59.3213213 L133.391112,59.3213213 C133.391112,59.3213213 129.077445,68 117.779746,68 C108.536174,68 100.422372,62.3843844 100.422372,51.7657658 Z M118.293278,50.5405405 C118.293278,53.2972973 120.141992,55.2372372 123.01777,55.2372372 C127.53685,55.2372372 132.055929,49.8258258 132.055929,45.2312312 L132.055929,44.006006 L130.412628,44.006006 C124.558365,44.006006 118.293278,45.8438438 118.293278,50.5405405 Z M166.438114,47.3753754 L166.438114,26.954955 L159.248669,26.954955 L159.248669,14.1921922 L166.951646,14.1921922 L166.951646,0 L184.206314,0 L184.206314,14.1921922 L195.2986,14.1921922 L195.2986,26.954955 L184.206314,26.954955 L184.206314,45.5375375 C184.206314,51.8678679 190.265989,52.7867868 193.655299,52.7867868 C195.093188,52.7867868 196.017545,52.6846847 196.017545,52.6846847 L196.017545,66.978979 C196.017545,66.978979 194.066124,67.2852853 191.190346,67.2852853 C182.768425,67.2852853 166.438114,65.039039 166.438114,47.3753754 Z M208.420569,47.3753754 L208.420569,26.954955 L201.231125,26.954955 L201.231125,14.1921922 L208.934101,14.1921922 L208.934101,0 L226.188769,0 L226.188769,14.1921922 L237.281056,14.1921922 L237.281056,26.954955 L226.188769,26.954955 L226.188769,45.5375375 C226.188769,51.8678679 232.248444,52.7867868 235.637754,52.7867868 C237.075643,52.7867868 238,52.6846847 238,52.6846847 L238,66.978979 C238,66.978979 236.048579,67.2852853 233.172801,67.2852853 C224.75088,67.2852853 208.420569,65.039039 208.420569,47.3753754 Z" id="matt"></path>
            <path d="M12.0818777,134.027027 C12.0818777,134.027027 18.665961,137.416216 26.9989415,137.416216 C33.3772723,137.416216 39.2412216,134.951351 39.2412216,126.735135 L39.2412216,124.989189 C39.2412216,124.372973 39.3440979,123.037838 39.3440979,123.037838 L39.1383453,123.037838 C36.0520562,126.735135 32.0398804,128.583784 25.8673022,128.583784 C9.9214753,128.583784 2,115.540541 2,101.983784 C2,88.5297297 9.7157227,76 25.7644259,76 C31.21687,76 38.2124585,77.9513514 41.1958713,82.8810811 L41.4016239,82.8810811 C41.4016239,82.8810811 41.2987476,82.0594595 41.2987476,81.5459459 C41.2987476,79.4918919 43.2533974,77.2324324 47.2655732,77.2324324 L63.3142764,77.2324324 L63.3142764,90.0702703 L59.3021006,90.0702703 C57.9647086,90.0702703 57.0388219,90.7891892 57.0388219,92.0216216 L57.0388219,125.297297 C57.0388219,144.605405 41.6073765,151.691892 27.1018178,151.691892 C20.003353,151.691892 12.184754,149.637838 7.04093883,146.967568 L12.0818777,134.027027 Z M30.0852306,113.794595 C34.7146642,113.794595 39.6527268,111.432432 39.6527268,102.189189 C39.6527268,92.8432432 34.7146642,90.7891892 29.3650965,90.7891892 C23.089642,90.7891892 19.9004767,95.3081081 19.9004767,101.367568 C19.9004767,107.940541 22.9867657,113.794595 30.0852306,113.794595 Z M70.7997617,130.124324 L70.7997617,117.286486 L77.4867213,117.286486 L77.4867213,90.0702703 L70.2853802,90.0702703 L70.2853802,77.2324324 L95.2843217,77.2324324 L95.2843217,117.286486 L101.971281,117.286486 L101.971281,130.124324 L70.7997617,130.124324 Z M109.251014,130.124324 L109.251014,117.286486 L115.937974,117.286486 L115.937974,92.3297297 C115.937974,90.8918919 115.114963,90.0702703 113.674695,90.0702703 L108.736633,90.0702703 L108.736633,77.2324324 L125.608346,77.2324324 C130.443532,77.2324324 132.912564,79.5945946 132.912564,83.1891892 L132.912564,84.9351351 C132.912564,85.4486486 132.809687,86.1675676 132.809687,86.1675676 L133.01544,86.1675676 C133.01544,86.1675676 137.644874,76 151.018793,76 C160.997794,76 168.91927,80.9297297 168.91927,95.8216216 L168.91927,117.286486 L175.606229,117.286486 L175.606229,130.124324 L151.121669,130.124324 L151.121669,99.1081081 C151.121669,94.1783784 149.167019,92.1243243 145.154844,92.1243243 C137.233368,92.1243243 133.735574,100.340541 133.735574,107.735135 L133.735574,117.286486 L140.422534,117.286486 L140.422534,130.124324 L109.251014,130.124324 Z M182.165828,130.124324 L182.165828,117.286486 L188.852788,117.286486 L188.852788,92.3297297 C188.852788,90.8918919 188.029777,90.0702703 186.589509,90.0702703 L181.651446,90.0702703 L181.651446,77.2324324 L198.52316,77.2324324 C203.358346,77.2324324 205.827377,79.5945946 205.827377,83.1891892 L205.827377,84.9351351 C205.827377,85.4486486 205.724501,86.1675676 205.724501,86.1675676 L205.930254,86.1675676 C205.930254,86.1675676 210.559687,76 223.933607,76 C233.912608,76 241.834083,80.9297297 241.834083,95.8216216 L241.834083,117.286486 L248.521043,117.286486 L248.521043,130.124324 L224.036483,130.124324 L224.036483,99.1081081 C224.036483,94.1783784 222.081833,92.1243243 218.069657,92.1243243 C210.148182,92.1243243 206.650388,100.340541 206.650388,107.735135 L206.650388,117.286486 L213.337348,117.286486 L213.337348,130.124324 L182.165828,130.124324 Z M256.109405,134.951351 C256.109405,134.951351 259.195694,137.416216 264.85389,137.416216 C268.557437,137.416216 272.158108,136.389189 273.598376,133.102703 L273.804129,132.589189 L256.315157,90.0702703 L250.348332,90.0702703 L250.348332,77.2324324 L279.462325,77.2324324 L279.462325,90.0702703 L274.31851,90.0702703 L280.799717,109.686486 C281.82848,112.87027 282.034233,116.567568 282.034233,116.567568 L282.445738,116.567568 C282.445738,116.567568 282.96012,112.87027 284.091759,109.686486 L290.367213,90.0702703 L285.532027,90.0702703 L285.532027,77.2324324 L313,77.2324324 L313,90.0702703 L307.547556,90.0702703 L290.47009,134.745946 C285.634903,147.378378 276.067407,151.691892 265.779777,151.691892 C256.623786,151.691892 250.656961,147.583784 250.656961,147.583784 L256.109405,134.951351 Z" id="ginny"></path>
            <polygon id="+" points="286 38.7244444 272.788889 38.7244444 272.788889 52 270.211111 52 270.211111 38.7244444 257 38.7244444 257 36.2111111 270.211111 36.2111111 270.211111 23 272.788889 23 272.788889 36.2111111 286 36.2111111"></polygon>
        </g>
    </g>
</svg>
